<?xml version="1.0" encoding="UTF-8" standalone="no"?> <svg width="512" height="512" viewBox="0 0 512 512" fill="none" xmlns="http://www.w3.org/2000/svg">
<path d="M96 456V248C96.0073 241.637 98.5382 235.537 103.037 231.038C107.537 226.538 113.637 224.007 120 224H440C446.363 224.007 452.463 226.538 456.963 231.038C461.462 235.537 463.993 241.637 464 248V296H480V248C479.988 237.395 475.77 227.228 468.271 219.729C460.772 212.23 450.605 208.012 440 208V86.6275C440.009 83.4745 439.392 80.351 438.185 77.438C436.978 74.525 435.206 71.8802 432.97 69.6568L386.343 23.0299C384.12 20.7942 381.475 19.0218 378.562 17.8151C375.649 16.6084 372.526 15.9915 369.373 16.0001H128C121.637 16.0074 115.537 18.5383 111.037 23.0376C106.538 27.5369 104.007 33.6371 104 40.0001V136H56C45.395 136.012 35.2278 140.23 27.7289 147.729C20.2301 155.228 16.012 165.395 16 176V456C16.012 466.605 20.2301 476.772 27.7289 484.271C35.2278 491.77 45.395 495.988 56 496H368V480H87.9781C93.1924 473.086 96.0089 464.66 96 456ZM376 35.3136L412.687 72.0001H384C381.879 71.9977 379.846 71.154 378.346 69.6543C376.846 68.1545 376.002 66.1211 376 64.0001V35.3136ZM376 192H408V176H376V152H408V136H376V86.624C378.569 87.5358 381.274 88.0012 384 88.0001H424V208H376V192ZM360 32.0001V60.6866L331.313 32.0001H360ZM312 35.3136L348.687 72.0001H320C317.879 71.9977 315.846 71.154 314.346 69.6543C312.846 68.1545 312.002 66.1211 312 64.0001V35.3136ZM120 40.0001C120.002 37.8791 120.846 35.8457 122.346 34.3459C123.846 32.8461 125.879 32.0025 128 32.0001H296V64.0001C296.007 70.3631 298.538 76.4635 303.037 80.9628C307.537 85.4621 313.637 87.993 320 88.0001H360V208H120V40.0001ZM80 456C80 462.365 77.4714 468.47 72.9706 472.971C68.4697 477.472 62.3652 480 56 480C49.6348 480 43.5303 477.472 39.0294 472.971C34.5286 468.47 32 462.365 32 456V176C32.0073 169.637 34.5382 163.537 39.0375 159.038C43.5368 154.538 49.637 152.007 56 152H104V211.35C96.8723 214.468 90.807 219.594 86.5449 226.103C82.2829 232.611 80.0086 240.22 80 248V456Z" fill="url(#paint0_linear_94_6725)"/>
<path d="M464 385.875V350.126L439.73 344.306L435.483 334.059L448.567 312.708L423.294 287.433L401.941 300.517L391.694 296.271L385.875 272H350.126L344.306 296.27L334.059 300.517L312.708 287.433L287.433 312.707L300.517 334.059L296.271 344.306L272 350.125V385.874L296.27 391.694L300.517 401.941L287.433 423.292L312.707 448.567L334.059 435.483L344.306 439.729L350.126 464H385.875L391.694 439.73L401.941 435.483L423.293 448.567L448.567 423.293L435.483 401.941L439.73 391.694L464 385.875ZM428.335 420.898L420.899 428.335L403.349 417.581L378.036 428.07L373.257 448H362.743L357.964 428.07L332.651 417.581L315.102 428.334L307.665 420.898L318.419 403.349L307.93 378.036L288 373.257V362.743L307.93 357.964L318.419 332.651L307.666 315.102L315.102 307.665L332.651 318.419L357.964 307.93L362.743 288H373.257L378.036 307.93L403.349 318.419L420.898 307.666L428.335 315.102L417.581 332.651L428.07 357.964L448 362.743V373.257L428.07 378.036L417.581 403.349L428.335 420.898Z" fill="url(#paint1_linear_94_6725)"/>
<path d="M368 328C360.089 328 352.355 330.346 345.777 334.741C339.199 339.136 334.072 345.384 331.045 352.693C328.017 360.002 327.225 368.044 328.769 375.804C330.312 383.563 334.122 390.69 339.716 396.284C345.31 401.878 352.437 405.688 360.196 407.231C367.956 408.775 375.998 407.983 383.307 404.955C390.616 401.928 396.864 396.801 401.259 390.223C405.654 383.645 408 375.911 408 368C407.988 357.395 403.77 347.228 396.271 339.729C388.772 332.23 378.605 328.012 368 328V328ZM368 392C363.253 392 358.613 390.592 354.666 387.955C350.72 385.318 347.643 381.57 345.827 377.184C344.01 372.799 343.535 367.973 344.461 363.318C345.387 358.662 347.673 354.386 351.029 351.029C354.386 347.673 358.662 345.387 363.318 344.461C367.973 343.535 372.799 344.01 377.184 345.827C381.57 347.643 385.318 350.72 387.955 354.666C390.592 358.613 392 363.253 392 368C391.993 374.363 389.462 380.463 384.963 384.963C380.463 389.462 374.363 391.993 368 392V392Z" fill="url(#paint2_linear_94_6725)"/>
<path d="M296 96H136V112H296V96Z" fill="url(#paint3_linear_94_6725)"/>
<path d="M344 136H136V152H344V136Z" fill="url(#paint4_linear_94_6725)"/>
<path d="M344 176H136V192H344V176Z" fill="url(#paint5_linear_94_6725)"/>
<path d="M323.203 265.316L316.797 250.654C285.692 264.255 261.257 289.643 248.855 321.245C236.454 352.846 237.101 388.078 250.654 419.203L265.316 412.798C253.461 385.561 252.899 354.734 263.752 327.083C274.605 299.432 295.987 277.218 323.203 265.316V265.316Z" fill="url(#paint6_linear_94_6725)"/>
<path d="M353.056 256.987L350.944 241.127C345.181 241.896 339.476 243.057 333.871 244.602L338.129 260.025C343.03 258.674 348.017 257.659 353.056 256.987V256.987Z" fill="url(#paint7_linear_94_6725)"/>
<path d="M485.346 316.797L470.684 323.203C482.539 350.44 483.101 381.267 472.248 408.918C461.395 436.569 440.013 458.783 412.797 470.684L419.203 485.346C450.308 471.746 474.744 446.357 487.145 414.756C499.546 383.154 498.899 347.922 485.346 316.797V316.797Z" fill="url(#paint8_linear_94_6725)"/>
<path d="M382.943 479.013L385.058 494.873C390.821 494.104 396.524 492.943 402.129 491.397L397.872 475.975C392.97 477.325 387.983 478.341 382.943 479.013V479.013Z" fill="url(#paint9_linear_94_6725)"/>
<path d="M280 56H136V72H280V56Z" fill="url(#paint10_linear_94_6725)"/>
<defs>
<linearGradient id="paint0_linear_94_6725" x1="248" y1="3.15159" x2="248" y2="488.353" gradientUnits="userSpaceOnUse">
<stop stop-color="#2AB793"/>
<stop offset="1" stop-color="#2C98B5"/>
</linearGradient>
<linearGradient id="paint1_linear_94_6725" x1="70927.9" y1="877.088" x2="70927.9" y2="94035.8" gradientUnits="userSpaceOnUse">
<stop stop-color="#2AB793"/>
<stop offset="1" stop-color="#2C98B5"/>
</linearGradient>
<linearGradient id="paint2_linear_94_6725" x1="29768" y1="580.12" x2="29768" y2="39396.3" gradientUnits="userSpaceOnUse">
<stop stop-color="#2AB793"/>
<stop offset="1" stop-color="#2C98B5"/>
</linearGradient>
<linearGradient id="paint3_linear_94_6725" x1="34696" y1="146.424" x2="34696" y2="7909.65" gradientUnits="userSpaceOnUse">
<stop stop-color="#2AB793"/>
<stop offset="1" stop-color="#2C98B5"/>
</linearGradient>
<linearGradient id="paint4_linear_94_6725" x1="50056" y1="186.424" x2="50056" y2="7949.65" gradientUnits="userSpaceOnUse">
<stop stop-color="#2AB793"/>
<stop offset="1" stop-color="#2C98B5"/>
</linearGradient>
<linearGradient id="paint5_linear_94_6725" x1="50056" y1="226.424" x2="50056" y2="7989.65" gradientUnits="userSpaceOnUse">
<stop stop-color="#2AB793"/>
<stop offset="1" stop-color="#2C98B5"/>
</linearGradient>
<linearGradient id="paint6_linear_94_6725" x1="23670.1" y1="781.836" x2="23670.1" y2="82562" gradientUnits="userSpaceOnUse">
<stop stop-color="#2AB793"/>
<stop offset="1" stop-color="#2C98B5"/>
</linearGradient>
<linearGradient id="paint7_linear_94_6725" x1="6923.24" y1="300.684" x2="6923.24" y2="9470" gradientUnits="userSpaceOnUse">
<stop stop-color="#2AB793"/>
<stop offset="1" stop-color="#2C98B5"/>
</linearGradient>
<linearGradient id="paint8_linear_94_6725" x1="38220.2" y1="847.98" x2="38220.2" y2="82628.4" gradientUnits="userSpaceOnUse">
<stop stop-color="#2AB793"/>
<stop offset="1" stop-color="#2C98B5"/>
</linearGradient>
<linearGradient id="paint9_linear_94_6725" x1="7914.15" y1="535.531" x2="7914.15" y2="9704.85" gradientUnits="userSpaceOnUse">
<stop stop-color="#2AB793"/>
<stop offset="1" stop-color="#2C98B5"/>
</linearGradient>
<linearGradient id="paint10_linear_94_6725" x1="30088" y1="106.424" x2="30088" y2="7869.65" gradientUnits="userSpaceOnUse">
<stop stop-color="#2AB793"/>
<stop offset="1" stop-color="#2C98B5"/>
</linearGradient>
</defs>
</svg>
